<?xml version="1.0" encoding="UTF-8" standalone="no"?>
<!DOCTYPE svg PUBLIC "-//W3C//DTD SVG 20010904//EN" "http://www.w3.org/TR/2001/REC-SVG-20010904/DTD/svg10.dtd">
<svg xmlns="http://www.w3.org/2000/svg" width="8.33333in" height="6.66667in" viewBox="0 0 2500 2000" role="img" aria-labelledby="title desc">
      <title id="title">Developer</title>
      <desc id="desc">Cartoon of a woman using a computer, drawn by Alvaro Montoro</desc>
      <defs>
            <clipPath id="neck-clip">
                  <path fill="#ffcdaa" d="M 1025,1185 C 1046,1118 1165,1076 1172,1076 1172,1076 1171,966 1171,966 1171,966 1326,963 1326,963 1326,963 1327,1091 1326,1076 1349,1079 1438,1121 1468,1170" />
            </clipPath>
            <clipPath id="ears-clip">
                  <path fill="#ffcdaa" d="M 960,706 C 944,666 887,673 862,699 838,725 822,778 861,822 901,866 960,835 972,814 984,793 1495,821 1534,821 1566,854 1613,849 1637,821 1662,793 1672,734 1635,699 1597,663 1554,681 1538,692" />
            </clipPath>
            <clipPath id="eyes-clip">
                  <path fill="#fff" d="M 1068,720 C 1057,784 1080,795 1131,794 1195,793 1193,799 1197,722 1204,602 1089,620 1069,720 M 1430,727 C 1418,617 1292,591 1300,726 1303,797 1311,794 1363,793 1416,793 1433,789 1430,726" />
            </clipPath>
            <filter id="blur">
                  <feGaussianBlur in="SourceGraphic" stdDeviation="30" />
            </filter>
      </defs>
      <path id="background" fill="#ffc" d="M 1120,1682 C 1772,1676 2086,1256 2142,1124 2198,992 2300,550 1810,364 1320,178 598,406 378,834 158,1262 400,1660 994,1678" />
      <path id="hair-back" fill="#522801" d="M 1565,540 C 1653,562 1633,714 1634,755 1635,796 1639,1022 1692,1064 1673,1064 1635,1064 1635,1064 1635,1064 1620,1005 1620,1005 1620,1005 1632,1063 1632,1063 1632,1063 1619,1063 1619,1063 1619,1063 1614,1041 1614,1041 1614,1041 1615,1063 1615,1063 1615,1063 1443,1058 1443,1058 1443,1058 1438,1051 1438,1051 1438,1051 1435,1057 1435,1058 1362,1051 1072,1052 940,1062 940,1062 938,1038 938,1038 938,1038 935,1061 935,1061 935,1061 865,1062 831,1061 861,973 862,796 863,786 863,775 843,581 907,567" />
      <path id="ears" fill="#ffcdaa" d="M 960,706 C 944,666 887,673 862,699 838,725 822,778 861,822 901,866 960,835 972,814 984,793 1495,821 1534,821 1566,854 1613,849 1637,821 1662,793 1672,734 1635,699 1597,663 1554,681 1538,692" />
      <path id="ear-shadow" fill="#f3bd9d" clip-path="url(#ears-clip)" d="M 1572,675 C 1584,715 1589,829 1580,850 1569,872 958,895 922,856 915,789 919,678 927,663" />
      <path id="ear-line" fill="#c29063" d="M 932,779 C 922,764 905,769 907,782 909,794 918,806 934,788 950,770 945,794 934,799 924,805 903,811 900,783 897,756 928,761 933,770 937,779 991,767 991,767 991,767 1539,791 1561,773 1583,755 1598,763 1597,782 1597,801 1580,814 1564,797 1549,780 1551,783 1565,791 1579,799 1588,798 1589,782 1590,766 1576,767 1565,776 1554,784 937,780 937,780" />
      <path id="earrings" fill="#ffd701" d="M 953,875 C 947,885 936,906 914,895 892,883 903,849 907,842 911,836 921,830 915,845 906,866 920,912 944,865 968,818 1546,839 1557,867 1567,899 1595,885 1581,844 1577,833 1580,831 1590,843 1610,871 1576,927 1552,878" />
      <path id="neck" fill="#ffcdaa" d="M 1025,1185 C 1046,1118 1165,1076 1172,1076 1172,1076 1171,966 1171,966 1171,966 1326,963 1326,963 1326,963 1327,1091 1326,1076 1349,1079 1438,1121 1468,1170" />
      <path id="neck-shadow" fill="#f3bd9d" clip-path="url(#neck-clip)" d="M 1148,1004 C 1194,1020 1326,1017 1353,1005 1380,993 1336,971 1336,971 1336,971 1153,979 1153,979" />
      <path id="shirt" fill="#89738a" clip-path="url(#neck-clip)" d="M 1145,1076 C 1145,1076 1249,1179 1249,1179 1249,1179 1353,1075 1353,1075 1353,1075 1503,1104 1503,1104 1503,1104 1493,1190 1493,1190 1493,1190 1020,1199 1020,1199 1020,1199 1009,1072 1009,1072" />
      <path id="face" fill="#ffcdaa" d="M 1047,493 C 928,626 928,700 927,827 926,954 1112,1005 1259,1000 1406,995 1586,958 1574,791 1562,624 1544,547 1448,463" />
      <path id="cheek-1" d="M1000,815 1050,780 1200,780 1250,815 1200,850 1125,875 1125,950 1125,875 1050,850" fill="#ff000028" filter="url(#blur)" />
      <path id="cheek-2" d="M1000,815 1050,780 1200,780 1250,815 1200,850 1125,875 1125,950 1125,875 1050,850" fill="#ff000028" filter="url(#blur)" transform="translate(250,0)" />
      <path id="eyes-shadow" fill="#f3bd9d" d="M 1068,746 C 1054,619 1215,566 1196,722 M 1300,738 C 1293,642 1324,629 1346,626 1368,624 1424,645 1428,719" />
      <path id="eyes" fill="#fff" d="M 1068,720 C 1057,784 1080,795 1131,794 1195,793 1193,799 1197,722 1204,602 1089,620 1069,720 M 1430,727 C 1418,617 1292,591 1300,726 1303,797 1311,794 1363,793 1416,793 1433,789 1430,726" />
      <circle id="pupil-1" cx="1143" cy="763" r="40" fill="#000" clip-path="url(#eyes-clip)" />
      <circle id="spark-1" cx="1120" cy="740" r="15" fill="#fff" clip-path="url(#eyes-clip)" />
      <circle id="pupil-2" cx="1358" cy="763" r="40" fill="#000" clip-path="url(#eyes-clip)" />
      <circle id="spark-2" cx="1333" cy="740" r="15" fill="#fff" clip-path="url(#eyes-clip)" />
      <path id="face-lines" fill="#c29063" d="M 1218,826 C 1217,798 1242,792 1256,793 1270,794 1284,817 1279,833 1274,849 1256,859 1236,853 1235,853 1233,847 1233,847 1242,848 1265,845 1268,829 1271,813 1254,796 1236,810 1222,821 1224,830 1224,830M 1169,863 C 1180,893 1221,913 1254,903 1253,903 1252,908 1252,910 1196,931 1162,880 1159,867" />
      <path id="eyebrow" fill="#522801" d="M 1058,621 C 1091,601 1157,594 1182,600 1195,592 1190,582 1186,582 1169,579 1092,574 1050,611 1048,613 1050,625 1058,621" />
      <path id="hair-top" fill="#663300" d="M 1091,530 C 1088,575 1012,642 948,646 1010,651 1112,601 1127,543 1241,677 1539,676 1718,589 1716,590 1668,569 1668,569 1668,569 1707,579 1733,585 1675,377 1352,272 1060,418 879,387 781,558 798,651 899,671 1057,617 1090,529" />
      <path id="laptop-light" fill="#e6e6e6" transform="translate(0,-5)" d="M 888,1651 C 850,1647 839,1636 838,1586 837,1535 831,1207 831,1187 831,1166 839,1155 888,1155 938,1155 1579,1155 1621,1155 1662,1155 1668,1166 1667,1194 1666,1222 1660,1586 1659,1606 1658,1636 1657,1646 1600,1645" />
      <path id="laptop" fill="#c6c6c6" d="M 888,1651 C 850,1647 839,1636 838,1586 837,1535 831,1207 831,1187 831,1166 839,1155 888,1155 938,1155 1579,1155 1621,1155 1662,1155 1668,1166 1667,1194 1666,1222 1660,1586 1659,1606 1658,1636 1657,1646 1600,1645" />
      <circle id="laptop-logo" cx="1251" cy="1425" r="50" fill="#dbdbdb" />
      <path id="cup" fill="#e6e6e6" d="M 1832,1662 C 1832,1662 1814,1348 1814,1348 1814,1348 2011,1348 2011,1348 2011,1348 1992,1667 1992,1667" />
      <path id="lid" fill="#222" d="M 1803,1354 C 1803,1354 2021,1354 2021,1354 2021,1354 2010,1322 2010,1322 2010,1322 1813,1321 1813,1321" />
      <path id="table" fill="#9e6e24" d="M 450,1644 C 450,1644 2047,1644 2047,1644 2047,1644 2047,1708 2047,1708 2047,1708 450,1708 450,1708" />
</svg>
